<svg width="189" height="74" viewBox="0 0 189 74" fill="none" xmlns="http://www.w3.org/2000/svg">
<path fill-rule="evenodd" clip-rule="evenodd" d="M127.173 49.4181V56.7051C127.173 60.3351 129.119 63.3881 133.263 63.3881C133.633 63.3881 133.8 63.2731 133.8 63.0391C133.789 62.954 133.746 62.8763 133.68 62.8219C133.613 62.7674 133.529 62.7403 133.443 62.7461C132.614 62.7461 132.33 62.2401 132.33 60.9321V46.1241C132.33 44.3541 132.976 43.4441 134.764 43.4441C136.677 43.4441 137.444 45.5441 137.444 47.4841C137.444 48.8201 137.679 50.1541 139.832 50.1541C140.147 50.1522 140.459 50.087 140.748 49.9625C141.037 49.838 141.299 49.6566 141.517 49.4291C141.735 49.2017 141.905 48.9328 142.017 48.6384C142.129 48.3439 142.181 48.03 142.17 47.7151C142.17 45.3731 139.67 42.7451 134.77 42.7451C130.209 42.7451 127.17 45.0941 127.17 49.4181M135.561 62.7761C137.325 62.7761 140.468 62.0891 140.846 59.0341C140.887 58.7081 141.008 58.5951 141.225 58.5951C141.417 58.5951 141.525 58.7141 141.525 58.9411C141.492 61.9081 138.689 63.4251 135.489 63.4251C135.181 63.4251 135.04 63.2931 135.04 63.1151C135.04 62.9371 135.219 62.7751 135.562 62.7751" fill="black"/>
<path d="M84.074 31.299H88.774C88.939 31.299 89.021 31.257 89.021 31.093V11.286C89.021 11.105 88.921 11.043 88.774 11.043H84.074C84.0409 11.0391 84.0074 11.0427 83.9759 11.0535C83.9444 11.0642 83.9157 11.0819 83.8919 11.1052C83.8681 11.1285 83.8498 11.1569 83.8384 11.1882C83.827 11.2194 83.8228 11.2529 83.826 11.286V31.093C83.826 31.217 83.909 31.299 84.074 31.299Z" fill="black"/>
<path d="M111.444 42.7381C110.956 42.7381 110.751 42.9151 110.751 43.1171C110.751 43.3191 110.895 43.4321 111.114 43.4321C111.814 43.4321 112.228 43.9681 112.228 45.2881V60.3381C112.234 60.663 112.17 60.9855 112.041 61.2838C111.912 61.5822 111.722 61.8496 111.481 62.0683C111.241 62.2869 110.956 62.4517 110.647 62.5517C110.338 62.6517 110.011 62.6846 109.688 62.6481C108.451 62.6481 107.46 62.1121 107.46 60.3381V45.2931C107.46 43.9731 107.871 43.4381 108.572 43.4381C108.656 43.435 108.736 43.4004 108.797 43.3412C108.857 43.282 108.893 43.2024 108.897 43.1181C108.897 42.9181 108.739 42.7391 108.241 42.7391C103.91 42.7391 102.301 45.5031 102.301 49.4221V56.7101C102.301 61.7501 104.751 63.3931 109.685 63.3931C114.385 63.3931 117.385 61.7501 117.385 56.7101V49.4181C117.385 45.4991 115.776 42.7351 111.445 42.7351" fill="black"/>
<path d="M170.147 33.7439C165.531 33.7439 163.302 35.4619 163.301 40.4499V63.1559C163.301 63.2799 163.384 63.3619 163.548 63.3619H168.248C168.372 63.3619 168.495 63.3619 168.495 63.1559V44.6369C168.495 44.5129 168.495 44.4309 168.66 44.4309H172.137C172.197 44.4357 172.256 44.4168 172.303 44.3783C172.349 44.3397 172.378 44.2847 172.384 44.2249V43.6369C172.384 43.4719 172.301 43.4309 172.137 43.4309H168.66C168.611 43.4249 168.566 43.4 168.536 43.3615C168.505 43.323 168.49 43.274 168.495 43.2249V36.7149C168.495 35.0869 169.066 34.4469 170.195 34.4469C171.551 34.4469 172.18 35.5809 172.18 37.6239C172.18 39.3429 173.118 39.9659 174.28 39.9699C174.566 40.0079 174.858 39.9793 175.131 39.8863C175.405 39.7934 175.654 39.6386 175.858 39.434C176.062 39.2293 176.216 38.9804 176.308 38.7066C176.4 38.4327 176.428 38.1412 176.389 37.8549C176.389 36.1729 174.641 33.7449 170.146 33.7449" fill="black"/>
<path d="M181.793 34.8121C181.793 37.4361 180.854 39.4911 178.543 39.4911C178.448 39.4911 178.358 39.5287 178.291 39.5957C178.224 39.6626 178.186 39.7534 178.186 39.8481C178.186 39.9428 178.224 40.0336 178.291 40.1006C178.358 40.1675 178.448 40.2051 178.543 40.2051C183.829 40.2051 187.197 37.9341 187.197 34.5661C187.201 34.198 187.129 33.8329 186.987 33.4933C186.845 33.1536 186.635 32.8466 186.37 32.5909C186.105 32.3352 185.791 32.1362 185.447 32.0061C185.102 31.876 184.735 31.8176 184.367 31.8343C183.999 31.8511 183.639 31.9427 183.307 32.1036C182.976 32.2644 182.681 32.4912 182.441 32.7699C182.2 33.0486 182.019 33.3735 181.908 33.7246C181.798 34.0758 181.76 34.4458 181.797 34.8121" fill="black"/>
<path d="M103.361 15.109V31.093C103.36 31.1204 103.365 31.1478 103.375 31.1733C103.385 31.1989 103.4 31.2221 103.419 31.2415C103.439 31.2609 103.462 31.2761 103.488 31.2862C103.513 31.2963 103.54 31.3009 103.568 31.3H108.353C108.38 31.3008 108.407 31.296 108.433 31.286C108.458 31.2759 108.481 31.2608 108.5 31.2415C108.52 31.2222 108.535 31.1991 108.545 31.1738C108.555 31.1484 108.56 31.1212 108.559 31.094V16.972C108.559 13.383 106.291 11.042 102.327 11.042H91.2109C91.1591 11.035 91.1064 11.0388 91.0562 11.0533C91.0059 11.0678 90.9593 11.0925 90.9191 11.126C90.879 11.1595 90.8462 11.201 90.8229 11.2478C90.7997 11.2946 90.7864 11.3457 90.7839 11.398C90.7843 11.4478 90.795 11.497 90.8152 11.5425C90.8354 11.5881 90.8647 11.629 90.9014 11.6627C90.938 11.6965 90.9812 11.7224 91.0283 11.7387C91.0753 11.7551 91.1253 11.7617 91.1749 11.758C92.3219 11.758 93.5809 12.137 93.5969 13.979V31.093C93.5969 31.217 93.6799 31.299 93.8449 31.299H98.5449C98.7099 31.299 98.7929 31.257 98.7929 31.093V12.071C98.7929 11.849 98.9149 11.741 99.0849 11.741H99.3629C102.084 11.741 103.363 12.655 103.363 15.109" fill="black"/>
<path d="M163.124 27.1629C163.132 26.841 163.075 26.5207 162.957 26.2212C162.839 25.9218 162.661 25.6493 162.435 25.4201C162.209 25.1909 161.938 25.0096 161.64 24.8873C161.343 24.7649 161.023 24.7039 160.701 24.7079C159.54 24.7079 158.401 25.5369 158.401 27.3949C158.401 29.4289 157.781 30.6359 156.089 30.6359C154.789 30.6359 153.978 30.1519 153.978 28.9359V21.5359C153.978 21.2879 154.061 21.1209 154.349 21.1209H157.677C162.003 21.1209 163.401 18.9529 163.401 15.8349C163.401 11.9859 160.01 10.6209 157.679 10.6209C157.201 10.6209 157.013 10.7649 157.013 10.9759C157.013 11.1869 157.122 11.3169 157.39 11.3169C158.338 11.3169 158.463 12.1449 158.463 13.1379V18.6379C158.463 19.9299 157.227 20.4179 155.387 20.4179H154.343C154.07 20.4179 153.972 20.2929 153.972 20.0029V13.1349C153.972 11.8109 154.361 11.3139 155.086 11.3139C155.328 11.3139 155.442 11.1849 155.442 10.9859C155.442 10.8049 155.296 10.6179 154.756 10.6179C150.425 10.6179 148.816 13.4639 148.816 17.3949V24.8029C148.816 28.4439 151.224 31.3379 155.927 31.3379C161.827 31.3379 163.127 28.8499 163.127 27.1629" fill="black"/>
<path d="M89.006 45.1849C89.006 43.8649 89.391 43.3689 90.116 43.3689C90.358 43.3689 90.471 43.2399 90.471 43.0409C90.471 42.8609 90.325 42.6749 89.785 42.6749C85.453 42.6749 83.848 45.5129 83.848 49.4329V56.8409C83.848 61.0489 86.548 63.3779 91.334 63.3779C96.779 63.3779 98.793 61.1919 98.793 57.3139V34.3129C98.793 34.1219 98.757 34.0659 98.586 34.0659H93.822C93.698 34.0659 93.616 34.1479 93.616 34.3129V60.3669C93.6596 60.678 93.6309 60.995 93.532 61.2931C93.4332 61.5913 93.2669 61.8627 93.0462 62.0862C92.8254 62.3096 92.5561 62.4792 92.2591 62.5816C91.9622 62.6841 91.6456 62.7167 91.334 62.6769C91.0185 62.7007 90.7017 62.6553 90.4056 62.544C90.1094 62.4327 89.8411 62.2582 89.6194 62.0325C89.3976 61.8069 89.2278 61.5356 89.1217 61.2376C89.0156 60.9395 88.9758 60.6219 89.005 60.3069L89.006 45.1849Z" fill="black"/>
<path fill-rule="evenodd" clip-rule="evenodd" d="M131.356 25.6801C131.356 25.4181 131.219 25.2961 131.018 25.2961C130.84 25.2961 130.682 25.4041 130.682 25.7311V31.0891C130.682 31.2131 130.726 31.2961 130.856 31.2961H136.178C136.465 31.2961 136.601 31.1721 136.601 30.9721C136.601 30.8061 136.452 30.6501 136.175 30.6501C132.643 30.6501 131.356 29.2321 131.356 25.6801ZM141.556 27.2971C141.574 28.1433 141.263 28.9636 140.688 29.5849C140.114 30.2063 139.32 30.5803 138.475 30.6281C138.163 30.6281 137.906 30.7281 137.906 31.0001C137.906 31.2721 138.093 31.3241 138.39 31.3241C142.257 31.3241 145.453 29.7691 145.453 25.1511C145.453 17.4401 133.534 19.0701 133.534 14.6321C133.534 12.4671 135.26 11.3521 138.034 11.3521C140.808 11.3521 143.386 12.8351 143.386 16.0451C143.386 16.3651 143.55 16.4801 143.72 16.4871C143.773 16.4921 143.827 16.485 143.877 16.4664C143.927 16.4479 143.972 16.4182 144.009 16.3798C144.046 16.3413 144.073 16.295 144.09 16.2443C144.106 16.1936 144.111 16.1399 144.104 16.0871V11.5771C144.104 11.4531 144.047 11.3771 143.846 11.3311C141.985 10.8999 140.085 10.6577 138.175 10.6081C134.025 10.5731 130.437 11.9841 130.437 16.7771C130.437 24.8691 141.559 23.2201 141.559 27.2911" fill="black"/>
<path d="M119.758 31.3391C125.444 31.3391 127.303 28.4821 127.303 24.8391V11.2501C127.304 11.2227 127.299 11.1955 127.289 11.17C127.279 11.1445 127.264 11.1213 127.245 11.1019C127.226 11.0825 127.202 11.0673 127.177 11.0572C127.152 11.047 127.124 11.0423 127.097 11.0431H122.312C122.285 11.0421 122.257 11.0468 122.232 11.0569C122.206 11.0669 122.183 11.0821 122.163 11.1015C122.144 11.121 122.129 11.1442 122.119 11.1697C122.109 11.1953 122.104 11.2226 122.105 11.2501V27.8321C122.105 30.0191 121.405 30.6321 119.732 30.6321C118.059 30.6321 117.381 30.0151 117.381 27.8321V11.2501C117.382 11.2227 117.377 11.1955 117.367 11.17C117.357 11.1445 117.342 11.1213 117.323 11.1019C117.304 11.0825 117.28 11.0673 117.255 11.0572C117.23 11.047 117.202 11.0423 117.175 11.0431H112.39C112.363 11.0423 112.335 11.047 112.31 11.0572C112.284 11.0673 112.261 11.0825 112.242 11.1019C112.223 11.1213 112.208 11.1445 112.198 11.17C112.188 11.1955 112.183 11.2227 112.184 11.2501V24.8411C112.184 28.4821 114.073 31.3411 119.759 31.3411" fill="black"/>
<path d="M174.381 31.3321C180.067 31.3321 181.926 28.4761 181.926 24.8321V11.2501C181.927 11.2226 181.922 11.1953 181.912 11.1697C181.902 11.1442 181.887 11.121 181.868 11.1015C181.848 11.0821 181.825 11.0669 181.799 11.0569C181.774 11.0468 181.746 11.0421 181.719 11.0431H176.934C176.907 11.0421 176.879 11.0468 176.854 11.0569C176.828 11.0669 176.805 11.0821 176.785 11.1015C176.766 11.121 176.751 11.1442 176.741 11.1697C176.731 11.1953 176.726 11.2226 176.727 11.2501V27.8261C176.727 30.0121 176.027 30.6261 174.354 30.6261C172.681 30.6261 172.003 30.0091 172.003 27.8261V11.2501C172.004 11.2227 171.999 11.1955 171.989 11.17C171.979 11.1445 171.964 11.1213 171.945 11.1019C171.926 11.0825 171.903 11.0673 171.877 11.0572C171.852 11.047 171.824 11.0423 171.797 11.0431H167.012C166.985 11.0423 166.957 11.047 166.932 11.0572C166.907 11.0673 166.883 11.0825 166.864 11.1019C166.845 11.1213 166.83 11.1445 166.82 11.17C166.81 11.1955 166.805 11.2227 166.806 11.2501V24.8361C166.806 28.4761 168.694 31.3301 174.381 31.3361" fill="black"/>
<path d="M188.501 59.229C188.509 58.9075 188.451 58.5879 188.333 58.2891C188.214 57.9903 188.036 57.7185 187.81 57.4901C187.584 57.2616 187.314 57.0812 187.016 56.9595C186.719 56.8378 186.399 56.7774 186.078 56.782C184.917 56.782 183.778 57.608 183.778 59.46C183.778 61.488 183.158 62.691 181.466 62.691C180.166 62.691 179.355 61.98 179.355 60.991V53.614C179.355 53.367 179.438 53.2 179.726 53.2H183.054C187.38 53.2 188.778 51.038 188.778 47.931C188.778 44.095 185.387 42.731 183.056 42.731C182.578 42.731 182.39 42.874 182.39 43.085C182.39 43.296 182.499 43.424 182.768 43.424C183.717 43.424 183.841 44.249 183.841 45.239V50.724C183.841 52.012 182.605 52.498 180.765 52.498H179.727C179.454 52.498 179.356 52.374 179.356 52.085V45.245C179.356 43.925 179.745 43.431 180.47 43.431C180.713 43.431 180.826 43.301 180.826 43.103C180.826 42.923 180.68 42.737 180.14 42.737C175.808 42.737 174.2 45.574 174.2 49.493V56.876C174.2 60.507 176.608 63.39 181.311 63.39C187.211 63.39 188.511 60.911 188.511 59.229" fill="black"/>
<path d="M145.24 47.1881C145.225 47.5016 145.274 47.8149 145.384 48.109C145.493 48.403 145.662 48.6717 145.878 48.8987C146.095 49.1257 146.356 49.3062 146.645 49.4294C146.933 49.5525 147.244 49.6157 147.558 49.6151C147.896 49.6147 148.23 49.5438 148.538 49.4067C148.847 49.2696 149.123 49.0695 149.35 48.8192C149.577 48.5688 149.749 48.2738 149.854 47.9531C149.96 47.6325 149.998 47.2932 149.965 46.9571C149.965 44.5571 150.676 43.4571 152.123 43.4571C153.816 43.4571 154.304 44.2711 154.303 45.8061V51.7291C154.303 52.0591 154.219 52.1771 153.848 52.1811L153.213 52.1881C147.092 52.2511 144.237 54.5271 144.237 58.2621C144.237 61.7821 145.886 63.3891 150.279 63.3891C150.549 63.3891 150.656 63.2751 150.656 63.0711C150.655 63.0253 150.644 62.9803 150.625 62.9386C150.606 62.897 150.579 62.8596 150.545 62.8288C150.512 62.7979 150.472 62.7743 150.429 62.7592C150.385 62.7441 150.34 62.738 150.294 62.7411C149.529 62.7411 149.325 62.5801 149.326 61.7571V56.7321C149.326 54.1771 150.752 52.8841 153.846 52.8841C154.176 52.8841 154.258 53.0081 154.258 53.4211V59.2851C154.258 61.8991 155.458 63.3901 158.548 63.3901H160.41C160.729 63.3901 160.848 63.2471 160.848 63.0661C160.846 62.9821 160.811 62.9023 160.751 62.8435C160.691 62.7847 160.611 62.7516 160.527 62.7511C159.414 62.7511 159.417 62.3631 159.417 61.1631V48.8301C159.417 44.9131 157.455 42.7471 151.928 42.7471C147.863 42.7471 145.238 44.9151 145.239 47.1891" fill="black"/>
<path d="M54.421 38.269C64.004 38.269 69.114 30.854 69.114 23.531C69.114 14.693 56.916 0 37.02 0C27.259 0.0205497 17.8993 3.88708 10.9696 10.7615C4.03993 17.636 0.0986414 26.9644 0 36.725C0 56.382 15.436 74 37 74C58.985 74 74 55.886 74 36.7C74.0415 36.3686 74.0089 36.0321 73.9045 35.7148C73.8001 35.3975 73.6265 35.1074 73.3962 34.8654C73.166 34.6234 72.8849 34.4356 72.5732 34.3155C72.2615 34.1954 71.9271 34.146 71.594 34.171C69.618 34.171 70.114 36.049 66.881 40.519C64.7675 43.3946 61.9911 45.7176 58.7878 47.2908C55.5844 48.8639 52.0487 49.6406 48.481 49.555C37.981 49.555 29.372 43.439 29.372 36.995C29.3644 35.9913 29.5566 34.9961 29.9372 34.0674C30.3179 33.1387 30.8796 32.2949 31.5895 31.5853C32.2993 30.8757 33.1433 30.3144 34.0722 29.9341C35.001 29.5538 35.9963 29.362 37 29.37C43.163 29.37 44.95 38.27 54.422 38.27" fill="#F5780F"/>
</svg>
